<svg xmlns="http://www.w3.org/2000/svg" width="800" height="300" viewBox="0 0 800 300">
  <defs>
    <marker id="a" markerWidth="7" markerHeight="7" refX="6" refY="3.5" orient="auto">
      <path d="M0,0 L7,3.5 L0,7 Z" fill="#333"/>
    </marker>
  </defs>
  <rect width="800" height="300" fill="#0a0a0a"/>
  <text x="400" y="22" font-family="Georgia,serif" font-size="9" fill="#555" text-anchor="middle" letter-spacing="5">THE ACCOUNTABILITY LOOP</text>
  <line x1="20" y1="30" x2="780" y2="30" stroke="#1e1e1e" stroke-width="1"/>

  <!-- ROW 1: Agent → Thesis → Hash -->
  <text x="30" y="50" font-family="monospace" font-size="8" fill="#666" letter-spacing="3">INFERENCE</text>
  <rect x="20" y="56" width="180" height="30" fill="#0f0f0f" rx="1"/>
  <rect x="20" y="56" width="3" height="30" fill="#22c55e" rx="1"/>
  <text x="32" y="67" font-family="monospace" font-size="9" fill="#e0e0e0">Agent analyzes ticker</text>
  <text x="32" y="79" font-family="monospace" font-size="8" fill="#555">multi-model · native language</text>
  <line x1="200" y1="71" x2="215" y2="71" stroke="#333" stroke-width="1" marker-end="url(#a)"/>

  <rect x="215" y="56" width="180" height="30" fill="#0f0f0f" rx="1"/>
  <rect x="215" y="56" width="3" height="30" fill="#a855f7" rx="1"/>
  <text x="227" y="67" font-family="monospace" font-size="9" fill="#e0e0e0">InvestmentThesis</text>
  <text x="227" y="79" font-family="monospace" font-size="8" fill="#555">Pydantic · direction + confidence</text>
  <line x1="395" y1="71" x2="410" y2="71" stroke="#333" stroke-width="1" marker-end="url(#a)"/>

  <rect x="410" y="56" width="180" height="30" fill="#0f0f0f" rx="1"/>
  <rect x="410" y="56" width="3" height="30" fill="#a855f7" rx="1"/>
  <text x="422" y="67" font-family="monospace" font-size="9" fill="#e0e0e0">SHA-256 hash</text>
  <text x="422" y="79" font-family="monospace" font-size="8" fill="#555">canonical · deterministic</text>
  <line x1="590" y1="71" x2="605" y2="71" stroke="#333" stroke-width="1" marker-end="url(#a)"/>

  <rect x="605" y="56" width="175" height="30" fill="#0f0f0f" rx="1"/>
  <rect x="605" y="56" width="3" height="30" fill="#00c2ff" rx="1"/>
  <text x="617" y="67" font-family="monospace" font-size="9" fill="#e0e0e0">IPFS pin · Pinata</text>
  <text x="617" y="79" font-family="monospace" font-size="8" fill="#555">permanent · dweb.link</text>

  <line x1="20" y1="98" x2="780" y2="98" stroke="#1e1e1e" stroke-width="1"/>

  <!-- ROW 2: Stake → Arc → Market -->
  <text x="30" y="114" font-family="monospace" font-size="8" fill="#666" letter-spacing="3">COMMITMENT</text>
  <rect x="20" y="120" width="180" height="30" fill="#0f0f0f" rx="1"/>
  <rect x="20" y="120" width="3" height="30" fill="#00c2ff" rx="1"/>
  <text x="32" y="131" font-family="monospace" font-size="9" fill="#e0e0e0">Stake 10 ROSETTA</text>
  <text x="32" y="143" font-family="monospace" font-size="8" fill="#555">RosettaToken.sol · bond</text>
  <line x1="200" y1="135" x2="215" y2="135" stroke="#333" stroke-width="1" marker-end="url(#a)"/>

  <rect x="215" y="120" width="180" height="30" fill="#0f0f0f" rx="1"/>
  <rect x="215" y="120" width="3" height="30" fill="#00c2ff" rx="1"/>
  <text x="227" y="131" font-family="monospace" font-size="9" fill="#e0e0e0">Arc L1 · chain 5042002</text>
  <text x="227" y="143" font-family="monospace" font-size="8" fill="#555">ReasoningRegistry.sol</text>
  <line x1="395" y1="135" x2="410" y2="135" stroke="#333" stroke-width="1" marker-end="url(#a)"/>

  <rect x="410" y="120" width="370" height="30" fill="#0f0f0f" rx="1"/>
  <rect x="410" y="120" width="3" height="30" fill="#00c2ff" rx="1"/>
  <text x="422" y="131" font-family="monospace" font-size="9" fill="#e0e0e0">PredictionMarket.sol · binary YES/NO</text>
  <text x="422" y="143" font-family="monospace" font-size="8" fill="#555">users bet on AI reasoning quality</text>

  <line x1="20" y1="162" x2="780" y2="162" stroke="#1e1e1e" stroke-width="1"/>

  <!-- ROW 3: Settlement outcomes -->
  <text x="30" y="178" font-family="monospace" font-size="8" fill="#666" letter-spacing="3">SETTLEMENT · MARKET EXPIRES</text>
  <rect x="20" y="184" width="370" height="30" fill="#0f0f0f" rx="1"/>
  <rect x="20" y="184" width="3" height="30" fill="#22c55e" rx="1"/>
  <text x="32" y="195" font-family="monospace" font-size="9" fill="#e0e0e0">CORRECT · Bond returned + reputation</text>
  <text x="32" y="207" font-family="monospace" font-size="8" fill="#555">agent accumulates on-chain track record</text>

  <rect x="410" y="184" width="370" height="30" fill="#0f0f0f" rx="1"/>
  <rect x="410" y="184" width="3" height="30" fill="#D82B2B" rx="1"/>
  <text x="422" y="195" font-family="monospace" font-size="9" fill="#e0e0e0">WRONG · Bond slashed to predictor</text>
  <text x="422" y="207" font-family="monospace" font-size="8" fill="#555">structural accountability · not aspirational</text>

  <!-- Footer -->
  <line x1="20" y1="228" x2="780" y2="228" stroke="#1e1e1e" stroke-width="1"/>
  <text x="30" y="248" font-family="monospace" font-size="8" fill="#333">■ LOOP</text>
  <rect x="70" y="240" width="8" height="8" fill="#22c55e" rx="1"/>
  <text x="83" y="248" font-family="monospace" font-size="8" fill="#555">Inference</text>
  <rect x="165" y="240" width="8" height="8" fill="#a855f7" rx="1"/>
  <text x="178" y="248" font-family="monospace" font-size="8" fill="#555">AI Pipeline</text>
  <rect x="270" y="240" width="8" height="8" fill="#00c2ff" rx="1"/>
  <text x="283" y="248" font-family="monospace" font-size="8" fill="#555">On-Chain Arc L1</text>
  <rect x="400" y="240" width="8" height="8" fill="#22c55e" rx="1"/>
  <text x="413" y="248" font-family="monospace" font-size="8" fill="#555">Bond returned</text>
  <rect x="515" y="240" width="8" height="8" fill="#D82B2B" rx="1"/>
  <text x="528" y="248" font-family="monospace" font-size="8" fill="#555">Bond slashed</text>
  <text x="400" y="288" font-family="Georgia,serif" font-size="8" fill="#333" text-anchor="middle" letter-spacing="3">AGORA AGENTS HACKATHON · MAY 2026</text>
</svg>