<svg xmlns="http://www.w3.org/2000/svg" width="800" height="540" viewBox="0 0 800 540">
  <defs>
    <marker id="a" markerWidth="7" markerHeight="7" refX="6" refY="3.5" orient="auto">
      <path d="M0,0 L7,3.5 L0,7 Z" fill="#333"/>
    </marker>
  </defs>
  <rect width="800" height="540" fill="#0a0a0a"/>
  <text x="400" y="22" font-family="Georgia,serif" font-size="9" fill="#555" text-anchor="middle" letter-spacing="5">ARCHITECTURE · ROSETTA ALPHA</text>
  <line x1="20" y1="30" x2="780" y2="30" stroke="#1e1e1e" stroke-width="1"/>

  <!-- DATA FEEDS -->
  <text x="30" y="48" font-family="monospace" font-size="8" fill="#666" letter-spacing="3">DATA FEEDS</text>
  <rect x="20" y="54" width="228" height="30" fill="#0f0f0f" rx="1"/>
  <rect x="20" y="54" width="3" height="30" fill="#22c55e" rx="1"/>
  <text x="32" y="65" font-family="monospace" font-size="9" fill="#e0e0e0">Financial Datasets MCP</text>
  <text x="32" y="77" font-family="monospace" font-size="8" fill="#555">US desk · SEC filings + news</text>
  <rect x="256" y="54" width="232" height="30" fill="#0f0f0f" rx="1"/>
  <rect x="256" y="54" width="3" height="30" fill="#22c55e" rx="1"/>
  <text x="268" y="65" font-family="monospace" font-size="9" fill="#e0e0e0">AKShare · yfinance · Stooq</text>
  <text x="268" y="77" font-family="monospace" font-size="8" fill="#555">CN / EU / JP desks</text>
  <rect x="496" y="54" width="284" height="30" fill="#0f0f0f" rx="1"/>
  <rect x="496" y="54" width="3" height="30" fill="#22c55e" rx="1"/>
  <text x="508" y="65" font-family="monospace" font-size="9" fill="#e0e0e0">CoinGecko · DeFiLlama</text>
  <text x="508" y="77" font-family="monospace" font-size="8" fill="#555">Crypto desk · BTC</text>

  <line x1="400" y1="84" x2="400" y2="97" stroke="#333" stroke-width="1" marker-end="url(#a)"/>
  <line x1="20" y1="102" x2="780" y2="102" stroke="#1e1e1e" stroke-width="1"/>

  <!-- REGIONAL AGENTS -->
  <text x="30" y="116" font-family="monospace" font-size="8" fill="#666" letter-spacing="3">REGIONAL AGENTS</text>
  <rect x="20" y="122" width="142" height="30" fill="#0f0f0f" rx="1"/>
  <rect x="20" y="122" width="3" height="30" fill="#22c55e" rx="1"/>
  <text x="32" y="133" font-family="monospace" font-size="9" fill="#e0e0e0">US · AAPL</text>
  <text x="32" y="145" font-family="monospace" font-size="8" fill="#555">Groq Llama-3.3 · EN</text>
  <rect x="170" y="122" width="142" height="30" fill="#0f0f0f" rx="1"/>
  <rect x="170" y="122" width="3" height="30" fill="#22c55e" rx="1"/>
  <text x="182" y="133" font-family="monospace" font-size="9" fill="#e0e0e0">CN · Moutai</text>
  <text x="182" y="145" font-family="monospace" font-size="8" fill="#555">DeepSeek V4 Pro · ZH</text>
  <rect x="320" y="122" width="142" height="30" fill="#0f0f0f" rx="1"/>
  <rect x="320" y="122" width="3" height="30" fill="#22c55e" rx="1"/>
  <text x="332" y="133" font-family="monospace" font-size="9" fill="#e0e0e0">EU · LVMH</text>
  <text x="332" y="145" font-family="monospace" font-size="8" fill="#555">Gemini 3.1 Flash · FR</text>
  <rect x="470" y="122" width="142" height="30" fill="#0f0f0f" rx="1"/>
  <rect x="470" y="122" width="3" height="30" fill="#22c55e" rx="1"/>
  <text x="482" y="133" font-family="monospace" font-size="9" fill="#e0e0e0">JP · Toyota</text>
  <text x="482" y="145" font-family="monospace" font-size="8" fill="#555">Gemini 3.1 Flash · JA</text>
  <rect x="620" y="122" width="160" height="30" fill="#0f0f0f" rx="1"/>
  <rect x="620" y="122" width="3" height="30" fill="#22c55e" rx="1"/>
  <text x="632" y="133" font-family="monospace" font-size="9" fill="#e0e0e0">CRYPTO · BTC</text>
  <text x="632" y="145" font-family="monospace" font-size="8" fill="#555">Groq Llama-3.3 · EN</text>

  <line x1="400" y1="152" x2="400" y2="165" stroke="#333" stroke-width="1" marker-end="url(#a)"/>
  <line x1="20" y1="170" x2="780" y2="170" stroke="#1e1e1e" stroke-width="1"/>

  <!-- AI PIPELINE -->
  <text x="30" y="184" font-family="monospace" font-size="8" fill="#666" letter-spacing="3">AI PIPELINE · ADALFLOW</text>
  <rect x="220" y="190" width="360" height="30" fill="#0f0f0f" rx="1"/>
  <rect x="220" y="190" width="3" height="30" fill="#a855f7" rx="1"/>
  <text x="232" y="201" font-family="monospace" font-size="9" fill="#e0e0e0">InvestmentThesis · Pydantic schema</text>
  <text x="232" y="213" font-family="monospace" font-size="8" fill="#555">direction · confidence · reasoning chain</text>

  <!-- Fork left: Translator -->
  <line x1="310" y1="220" x2="180" y2="234" stroke="#333" stroke-width="1" marker-end="url(#a)"/>
  <rect x="20" y="234" width="320" height="30" fill="#0f0f0f" rx="1"/>
  <rect x="20" y="234" width="3" height="30" fill="#a855f7" rx="1"/>
  <text x="32" y="245" font-family="monospace" font-size="9" fill="#e0e0e0">Translator Agent · DeepSeek / Gemini</text>
  <text x="32" y="257" font-family="monospace" font-size="8" fill="#555">thesis → PredictionMarketQuestion</text>

  <!-- Fork right: Hash -->
  <line x1="490" y1="220" x2="620" y2="234" stroke="#333" stroke-width="1" marker-end="url(#a)"/>
  <rect x="460" y="234" width="320" height="30" fill="#0f0f0f" rx="1"/>
  <rect x="460" y="234" width="3" height="30" fill="#a855f7" rx="1"/>
  <text x="472" y="245" font-family="monospace" font-size="9" fill="#e0e0e0">SHA-256 canonical hash</text>
  <text x="472" y="257" font-family="monospace" font-size="8" fill="#555">deterministic · Pinata IPFS pin</text>

  <line x1="20" y1="274" x2="780" y2="274" stroke="#1e1e1e" stroke-width="1"/>

  <!-- ON-CHAIN -->
  <text x="30" y="288" font-family="monospace" font-size="8" fill="#666" letter-spacing="3">ON-CHAIN · ARC L1 CHAIN 5042002</text>
  <rect x="20" y="294" width="228" height="30" fill="#0f0f0f" rx="1"/>
  <rect x="20" y="294" width="3" height="30" fill="#00c2ff" rx="1"/>
  <text x="32" y="305" font-family="monospace" font-size="9" fill="#e0e0e0">Stake 10 ROSETTA</text>
  <text x="32" y="317" font-family="monospace" font-size="8" fill="#555">RosettaToken.sol · performance bond</text>
  <rect x="256" y="294" width="268" height="30" fill="#0f0f0f" rx="1"/>
  <rect x="256" y="294" width="3" height="30" fill="#00c2ff" rx="1"/>
  <text x="268" y="305" font-family="monospace" font-size="9" fill="#e0e0e0">ReasoningRegistry.sol</text>
  <text x="268" y="317" font-family="monospace" font-size="8" fill="#555">hash + IPFS CID · immutable Arc record</text>
  <rect x="532" y="294" width="248" height="30" fill="#0f0f0f" rx="1"/>
  <rect x="532" y="294" width="3" height="30" fill="#00c2ff" rx="1"/>
  <text x="544" y="305" font-family="monospace" font-size="9" fill="#e0e0e0">PredictionMarket.sol</text>
  <text x="544" y="317" font-family="monospace" font-size="8" fill="#555">binary YES/NO · 0.5 USDC reward</text>

  <line x1="400" y1="324" x2="400" y2="337" stroke="#333" stroke-width="1" marker-end="url(#a)"/>
  <line x1="20" y1="342" x2="780" y2="342" stroke="#1e1e1e" stroke-width="1"/>

  <!-- SETTLEMENT + TRAINING -->
  <text x="30" y="356" font-family="monospace" font-size="8" fill="#666" letter-spacing="3">SETTLEMENT · TRAINING LOOP</text>
  <rect x="20" y="362" width="228" height="30" fill="#0f0f0f" rx="1"/>
  <rect x="20" y="362" width="3" height="30" fill="#f59e0b" rx="1"/>
  <text x="32" y="373" font-family="monospace" font-size="9" fill="#e0e0e0">Autonomous Settler</text>
  <text x="32" y="385" font-family="monospace" font-size="8" fill="#555">reasoning/settler.py · permissionless</text>
  <rect x="256" y="362" width="228" height="30" fill="#0f0f0f" rx="1"/>
  <rect x="256" y="362" width="3" height="30" fill="#f59e0b" rx="1"/>
  <text x="268" y="373" font-family="monospace" font-size="9" fill="#e0e0e0">OwnerPriceOracle.sol</text>
  <text x="268" y="385" font-family="monospace" font-size="8" fill="#555">resolves markets at expiry</text>
  <rect x="492" y="362" width="288" height="30" fill="#0f0f0f" rx="1"/>
  <rect x="492" y="362" width="3" height="30" fill="#a855f7" rx="1"/>
  <text x="504" y="373" font-family="monospace" font-size="9" fill="#e0e0e0">TextGrad Optimizer</text>
  <text x="504" y="385" font-family="monospace" font-size="8" fill="#555">AdalFlow trace dataset · JSONL loop</text>

  <!-- Footer -->
  <line x1="20" y1="408" x2="780" y2="408" stroke="#1e1e1e" stroke-width="1"/>
  <rect x="30" y="420" width="8" height="8" fill="#22c55e" rx="1"/>
  <text x="43" y="428" font-family="monospace" font-size="8" fill="#555">Regional Agents (5)</text>
  <rect x="175" y="420" width="8" height="8" fill="#a855f7" rx="1"/>
  <text x="188" y="428" font-family="monospace" font-size="8" fill="#555">AI Pipeline · AdalFlow</text>
  <rect x="330" y="420" width="8" height="8" fill="#00c2ff" rx="1"/>
  <text x="343" y="428" font-family="monospace" font-size="8" fill="#555">On-Chain · Arc L1</text>
  <rect x="465" y="420" width="8" height="8" fill="#f59e0b" rx="1"/>
  <text x="478" y="428" font-family="monospace" font-size="8" fill="#555">Settlement + Training Loop</text>
  <text x="400" y="470" font-family="Georgia,serif" font-size="8" fill="#333" text-anchor="middle" letter-spacing="3">AGORA AGENTS HACKATHON · MAY 2026</text>
</svg>